<svg id="visual" viewBox="0 0 900 600" width="900" height="600" xmlns="http://www.w3.org/2000/svg" xmlns:xlink="http://www.w3.org/1999/xlink" version="1.1"><rect x="0" y="0" width="900" height="600" fill="#CFB53B"></rect><defs><linearGradient id="grad1_0" x1="33.3%" y1="0%" x2="100%" y2="100%"><stop offset="20%" stop-color="#cfb53b" stop-opacity="1"></stop><stop offset="80%" stop-color="#cfb53b" stop-opacity="1"></stop></linearGradient></defs><defs><linearGradient id="grad2_0" x1="0%" y1="0%" x2="66.7%" y2="100%"><stop offset="20%" stop-color="#cfb53b" stop-opacity="1"></stop><stop offset="80%" stop-color="#cfb53b" stop-opacity="1"></stop></linearGradient></defs><g transform="translate(900, 0)"><path d="M0 324.5C-27 317 -54 309.4 -80 298.5C-105.9 287.5 -130.8 273.1 -147 254.6C-163.2 236.1 -170.7 213.6 -201.5 201.5C-232.4 189.5 -286.5 187.9 -281 162.2C-275.5 136.6 -210.4 86.7 -207.7 55.6C-205 24.6 -264.7 12.3 -324.5 0L0 0Z" fill="#3c3c3d"></path></g><g transform="translate(0, 600)"><path d="M0 -324.5C22.7 -306 45.3 -287.5 76.9 -286.9C108.4 -286.2 148.8 -303.4 162.2 -281C175.7 -258.7 162.2 -196.8 163.3 -163.3C164.5 -129.8 180.3 -124.7 198.3 -114.5C216.3 -104.3 236.5 -89 257.9 -69.1C279.3 -49.2 301.9 -24.6 324.5 0L0 0Z" fill="#3c3c3d"></path></g></svg>