<svg id="visual" viewBox="0 0 900 900" width="900" height="900" xmlns="http://www.w3.org/2000/svg" xmlns:xlink="http://www.w3.org/1999/xlink" version="1.1"><path d="M361 0L339.2 21.5C317.3 43 273.7 86 273 128.8C272.3 171.7 314.7 214.3 314.7 257.2C314.7 300 272.3 343 275 385.8C277.7 428.7 325.3 471.3 330.5 514.2C335.7 557 298.3 600 275.7 642.8C253 685.7 245 728.3 258.2 771.2C271.3 814 305.7 857 322.8 878.5L340 900L0 900L0 878.5C0 857 0 814 0 771.2C0 728.3 0 685.7 0 642.8C0 600 0 557 0 514.2C0 471.3 0 428.7 0 385.8C0 343 0 300 0 257.2C0 214.3 0 171.7 0 128.8C0 86 0 43 0 21.5L0 0Z" fill="#3c3c3d"></path><path d="M203 0L206.8 21.5C210.7 43 218.3 86 216.5 128.8C214.7 171.7 203.3 214.3 214.5 257.2C225.7 300 259.3 343 265.8 385.8C272.3 428.7 251.7 471.3 244.2 514.2C236.7 557 242.3 600 242.8 642.8C243.3 685.7 238.7 728.3 241.2 771.2C243.7 814 253.3 857 258.2 878.5L263 900L0 900L0 878.5C0 857 0 814 0 771.2C0 728.3 0 685.7 0 642.8C0 600 0 557 0 514.2C0 471.3 0 428.7 0 385.8C0 343 0 300 0 257.2C0 214.3 0 171.7 0 128.8C0 86 0 43 0 21.5L0 0Z" fill="#686869"></path><path d="M244 0L231.8 21.5C219.7 43 195.3 86 183.7 128.8C172 171.7 173 214.3 178.3 257.2C183.7 300 193.3 343 192.8 385.8C192.3 428.7 181.7 471.3 172.3 514.2C163 557 155 600 155 642.8C155 685.7 163 728.3 169.2 771.2C175.3 814 179.7 857 181.8 878.5L184 900L0 900L0 878.5C0 857 0 814 0 771.2C0 728.3 0 685.7 0 642.8C0 600 0 557 0 514.2C0 471.3 0 428.7 0 385.8C0 343 0 300 0 257.2C0 214.3 0 171.7 0 128.8C0 86 0 43 0 21.5L0 0Z" fill="#989898"></path><path d="M139 0L130.7 21.5C122.3 43 105.7 86 104.3 128.8C103 171.7 117 214.3 128.2 257.2C139.3 300 147.7 343 145 385.8C142.3 428.7 128.7 471.3 129.5 514.2C130.3 557 145.7 600 144.5 642.8C143.3 685.7 125.7 728.3 122.7 771.2C119.7 814 131.3 857 137.2 878.5L143 900L0 900L0 878.5C0 857 0 814 0 771.2C0 728.3 0 685.7 0 642.8C0 600 0 557 0 514.2C0 471.3 0 428.7 0 385.8C0 343 0 300 0 257.2C0 214.3 0 171.7 0 128.8C0 86 0 43 0 21.5L0 0Z" fill="#cacaca"></path><path d="M61 0L67.3 21.5C73.7 43 86.3 86 91 128.8C95.7 171.7 92.3 214.3 82.8 257.2C73.3 300 57.7 343 57.7 385.8C57.7 428.7 73.3 471.3 84.2 514.2C95 557 101 600 100 642.8C99 685.7 91 728.3 80.8 771.2C70.7 814 58.3 857 52.2 878.5L46 900L0 900L0 878.5C0 857 0 814 0 771.2C0 728.3 0 685.7 0 642.8C0 600 0 557 0 514.2C0 471.3 0 428.7 0 385.8C0 343 0 300 0 257.2C0 214.3 0 171.7 0 128.8C0 86 0 43 0 21.5L0 0Z" fill="#ffffff"></path></svg>