<svg id="visual" viewBox="0 0 900 600" width="900" height="600" xmlns="http://www.w3.org/2000/svg" xmlns:xlink="http://www.w3.org/1999/xlink" version="1.1"><rect x="0" y="0" width="900" height="600" fill="#CFB53B"></rect><path d="M796 600L802 600L802 565L776 565L776 529L809 529L809 494L829 494L829 459L809 459L809 424L846 424L846 388L810 388L810 353L818 353L818 318L817 318L817 282L790 282L790 247L777 247L777 212L815 212L815 176L784 176L784 141L840 141L840 106L842 106L842 71L782 71L782 35L819 35L819 0L900 0L900 35L900 35L900 71L900 71L900 106L900 106L900 141L900 141L900 176L900 176L900 212L900 212L900 247L900 247L900 282L900 282L900 318L900 318L900 353L900 353L900 388L900 388L900 424L900 424L900 459L900 459L900 494L900 494L900 529L900 529L900 565L900 565L900 600L900 600Z" fill="#3c3c3d"></path></svg>