<svg id="visual" viewBox="0 0 900 600" width="900" height="600" xmlns="http://www.w3.org/2000/svg" xmlns:xlink="http://www.w3.org/1999/xlink" version="1.1"><rect x="0" y="0" width="900" height="600" fill="#CFB53B"></rect><path d="M106 0L100 0L100 35L126 35L126 71L93 71L93 106L73 106L73 141L93 141L93 176L56 176L56 212L92 212L92 247L84 247L84 282L85 282L85 318L112 318L112 353L125 353L125 388L87 388L87 424L118 424L118 459L62 459L62 494L60 494L60 529L120 529L120 565L83 565L83 600L0 600L0 565L0 565L0 529L0 529L0 494L0 494L0 459L0 459L0 424L0 424L0 388L0 388L0 353L0 353L0 318L0 318L0 282L0 282L0 247L0 247L0 212L0 212L0 176L0 176L0 141L0 141L0 106L0 106L0 71L0 71L0 35L0 35L0 0L0 0Z" fill="#3c3c3d"></path></svg>