<svg id="visual" viewBox="0 0 960 300" width="960" height="300" xmlns="http://www.w3.org/2000/svg" xmlns:xlink="http://www.w3.org/1999/xlink" version="1.1"><rect x="0" y="0" width="960" height="300" fill="#fff"></rect><path d="M0 224L22.8 219.7C45.7 215.3 91.3 206.7 137 210.7C182.7 214.7 228.3 231.3 274 244.8C319.7 258.3 365.3 268.7 411.2 271C457 273.3 503 267.7 548.8 256.8C594.7 246 640.3 230 686 230.5C731.7 231 777.3 248 823 252.7C868.7 257.3 914.3 249.7 937.2 245.8L960 242L960 301L937.2 301C914.3 301 868.7 301 823 301C777.3 301 731.7 301 686 301C640.3 301 594.7 301 548.8 301C503 301 457 301 411.2 301C365.3 301 319.7 301 274 301C228.3 301 182.7 301 137 301C91.3 301 45.7 301 22.8 301L0 301Z" fill="#cfb53b" stroke-linecap="round" stroke-linejoin="miter"></path></svg>