<svg id="visual" viewBox="0 0 960 300" width="960" height="300" xmlns="http://www.w3.org/2000/svg" xmlns:xlink="http://www.w3.org/1999/xlink" version="1.1"><rect x="0" y="0" width="960" height="300" fill="#CFB53B"></rect><path d="M337 0L316.5 5C296 10 255 20 238.5 30C222 40 230 50 230.7 60C231.3 70 224.7 80 234.5 90C244.3 100 270.7 110 277.2 120C283.7 130 270.3 140 274.3 150C278.3 160 299.7 170 300.2 180C300.7 190 280.3 200 285.8 210C291.3 220 322.7 230 326.3 240C330 250 306 260 298.5 270C291 280 300 290 304.5 295L309 300L0 300L0 295C0 290 0 280 0 270C0 260 0 250 0 240C0 230 0 220 0 210C0 200 0 190 0 180C0 170 0 160 0 150C0 140 0 130 0 120C0 110 0 100 0 90C0 80 0 70 0 60C0 50 0 40 0 30C0 20 0 10 0 5L0 0Z" fill="#3c3c3d"></path><path d="M191 0L176.2 5C161.3 10 131.7 20 135.7 30C139.7 40 177.3 50 186.5 60C195.7 70 176.3 80 157.3 90C138.3 100 119.7 110 118.2 120C116.7 130 132.3 140 146.8 150C161.3 160 174.7 170 185.7 180C196.7 190 205.3 200 200.3 210C195.3 220 176.7 230 163.7 240C150.7 250 143.3 260 152.2 270C161 280 186 290 198.5 295L211 300L0 300L0 295C0 290 0 280 0 270C0 260 0 250 0 240C0 230 0 220 0 210C0 200 0 190 0 180C0 170 0 160 0 150C0 140 0 130 0 120C0 110 0 100 0 90C0 80 0 70 0 60C0 50 0 40 0 30C0 20 0 10 0 5L0 0Z" fill="#ffffff"></path></svg>