<svg id="visual" viewBox="0 0 960 300" width="960" height="300" xmlns="http://www.w3.org/2000/svg" xmlns:xlink="http://www.w3.org/1999/xlink" version="1.1"><rect x="0" y="0" width="960" height="300" fill="#CFB53B"></rect><path d="M0 104L13.3 104C26.7 104 53.3 104 80 102.2C106.7 100.3 133.3 96.7 160 92.3C186.7 88 213.3 83 240 82.5C266.7 82 293.3 86 320 90.3C346.7 94.7 373.3 99.3 400 102C426.7 104.7 453.3 105.3 480 103.3C506.7 101.3 533.3 96.7 560 95.5C586.7 94.3 613.3 96.7 640 94.5C666.7 92.3 693.3 85.7 720 86.3C746.7 87 773.3 95 800 100.8C826.7 106.7 853.3 110.3 880 109.2C906.7 108 933.3 102 946.7 99L960 96L960 0L946.7 0C933.3 0 906.7 0 880 0C853.3 0 826.7 0 800 0C773.3 0 746.7 0 720 0C693.3 0 666.7 0 640 0C613.3 0 586.7 0 560 0C533.3 0 506.7 0 480 0C453.3 0 426.7 0 400 0C373.3 0 346.7 0 320 0C293.3 0 266.7 0 240 0C213.3 0 186.7 0 160 0C133.3 0 106.7 0 80 0C53.3 0 26.7 0 13.3 0L0 0Z" fill="#ffffff"></path><path d="M0 62L13.3 63.3C26.7 64.7 53.3 67.3 80 66.3C106.7 65.3 133.3 60.7 160 60.7C186.7 60.7 213.3 65.3 240 66.3C266.7 67.3 293.3 64.7 320 63.2C346.7 61.7 373.3 61.3 400 64.7C426.7 68 453.3 75 480 79.3C506.7 83.7 533.3 85.3 560 86.3C586.7 87.3 613.3 87.7 640 88.2C666.7 88.7 693.3 89.3 720 85.7C746.7 82 773.3 74 800 68.5C826.7 63 853.3 60 880 63.3C906.7 66.7 933.3 76.3 946.7 81.2L960 86L960 0L946.7 0C933.3 0 906.7 0 880 0C853.3 0 826.7 0 800 0C773.3 0 746.7 0 720 0C693.3 0 666.7 0 640 0C613.3 0 586.7 0 560 0C533.3 0 506.7 0 480 0C453.3 0 426.7 0 400 0C373.3 0 346.7 0 320 0C293.3 0 266.7 0 240 0C213.3 0 186.7 0 160 0C133.3 0 106.7 0 80 0C53.3 0 26.7 0 13.3 0L0 0Z" fill="#b9b9b9"></path><path d="M0 65L13.3 63.5C26.7 62 53.3 59 80 57.5C106.7 56 133.3 56 160 52.8C186.7 49.7 213.3 43.3 240 44.2C266.7 45 293.3 53 320 57.2C346.7 61.3 373.3 61.7 400 59.3C426.7 57 453.3 52 480 52.5C506.7 53 533.3 59 560 58.7C586.7 58.3 613.3 51.7 640 50.2C666.7 48.7 693.3 52.3 720 54.7C746.7 57 773.3 58 800 57.5C826.7 57 853.3 55 880 52.7C906.7 50.3 933.3 47.7 946.7 46.3L960 45L960 0L946.7 0C933.3 0 906.7 0 880 0C853.3 0 826.7 0 800 0C773.3 0 746.7 0 720 0C693.3 0 666.7 0 640 0C613.3 0 586.7 0 560 0C533.3 0 506.7 0 480 0C453.3 0 426.7 0 400 0C373.3 0 346.7 0 320 0C293.3 0 266.7 0 240 0C213.3 0 186.7 0 160 0C133.3 0 106.7 0 80 0C53.3 0 26.7 0 13.3 0L0 0Z" fill="#787878"></path><path d="M0 25L13.3 23.8C26.7 22.7 53.3 20.3 80 20.5C106.7 20.7 133.3 23.3 160 24.5C186.7 25.7 213.3 25.3 240 27.3C266.7 29.3 293.3 33.7 320 33C346.7 32.3 373.3 26.7 400 25.2C426.7 23.7 453.3 26.3 480 27.3C506.7 28.3 533.3 27.7 560 27C586.7 26.3 613.3 25.7 640 24.2C666.7 22.7 693.3 20.3 720 20.2C746.7 20 773.3 22 800 22.7C826.7 23.3 853.3 22.7 880 25C906.7 27.3 933.3 32.7 946.7 35.3L960 38L960 0L946.7 0C933.3 0 906.7 0 880 0C853.3 0 826.7 0 800 0C773.3 0 746.7 0 720 0C693.3 0 666.7 0 640 0C613.3 0 586.7 0 560 0C533.3 0 506.7 0 480 0C453.3 0 426.7 0 400 0C373.3 0 346.7 0 320 0C293.3 0 266.7 0 240 0C213.3 0 186.7 0 160 0C133.3 0 106.7 0 80 0C53.3 0 26.7 0 13.3 0L0 0Z" fill="#3c3c3d"></path></svg>